<svg width="512" height="512" viewBox="0 0 512 512" fill="none" xmlns="http://www.w3.org/2000/svg">
<rect width="512" height="512" fill="#09091D"/>
<path d="M185.515 371.211C186.188 370.544 186.525 370.211 186.526 369.795C186.527 369.38 186.192 369.045 185.522 368.375L176.091 358.944C175.427 358.28 175.095 357.948 174.683 357.947C174.27 357.946 173.937 358.276 173.27 358.937L151.593 380.397C150.92 381.063 150.583 381.396 150.582 381.812C150.581 382.228 150.916 382.563 151.586 383.232L161.017 392.664C161.681 393.327 162.012 393.659 162.425 393.66C162.838 393.661 163.171 393.331 163.838 392.671L185.515 371.211Z" fill="#F75762"/>
<path d="M148.735 358.95C149.408 358.284 149.745 357.951 149.746 357.535C149.747 357.119 149.412 356.784 148.742 356.115L139.311 346.683C138.647 346.02 138.315 345.688 137.903 345.687C137.49 345.686 137.156 346.016 136.49 346.676L114.813 368.136C114.14 368.803 113.803 369.136 113.802 369.552C113.801 369.967 114.136 370.302 114.806 370.972L124.237 380.403C124.9 381.067 125.232 381.399 125.645 381.4C126.058 381.401 126.391 381.071 127.058 380.411L148.735 358.95Z" fill="#F75762"/>
<path d="M234.588 419.023C235.246 418.355 235.575 418.022 235.573 417.61C235.572 417.197 235.241 416.866 234.578 416.204L225.373 406.999C224.71 406.337 224.379 406.006 223.967 406.004C223.554 406.003 223.221 406.332 222.554 406.99L207.011 422.326C206.336 422.992 205.999 423.325 205.997 423.741C205.996 424.158 206.331 424.493 207.002 425.164L216.414 434.576C217.085 435.247 217.421 435.582 217.837 435.581C218.253 435.58 218.586 435.242 219.252 434.567L234.588 419.023Z" fill="#F75762"/>
<path d="M127.059 310.128C126.391 309.474 126.058 309.147 125.647 309.149C125.235 309.151 124.905 309.482 124.245 310.142L108.914 325.472C108.248 326.139 107.914 326.472 107.914 326.886C107.914 327.3 108.248 327.634 108.914 328.3L118.11 337.496C118.772 338.159 119.104 338.49 119.516 338.491C119.928 338.493 120.262 338.164 120.929 337.506L136.456 322.185C137.138 321.513 137.479 321.176 137.478 320.757C137.477 320.338 137.135 320.003 136.452 319.333L127.059 310.128Z" fill="#F75762"/>
<path d="M252.61 401.124L243.772 409.962C243.106 410.628 242.772 410.962 242.772 411.376C242.772 411.79 243.106 412.123 243.772 412.79L252.816 421.833C253.482 422.5 253.816 422.833 254.23 422.833C254.644 422.833 254.977 422.5 255.644 421.833L264.482 412.995C265.149 412.329 265.482 411.995 265.482 411.581C265.482 411.167 265.149 410.834 264.482 410.167L255.439 401.124C254.772 400.457 254.439 400.124 254.025 400.124C253.61 400.124 253.277 400.457 252.61 401.124Z" fill="#F75762"/>
<path d="M330.189 205.458C329.522 204.792 329.189 204.458 328.775 204.458C328.361 204.458 328.027 204.792 327.361 205.458L256.271 276.548C255.604 277.215 255.271 277.548 254.856 277.548C254.442 277.548 254.109 277.215 253.442 276.548L243.891 266.992C243.224 266.326 242.891 265.992 242.891 265.578C242.891 265.164 243.224 264.831 243.891 264.164L254.949 253.106C254.985 253.07 255.044 253.07 255.08 253.107C255.115 253.144 255.174 253.144 255.21 253.108L326.77 181.548C327.436 180.882 327.77 180.548 328.184 180.548C328.598 180.548 328.931 180.882 329.598 181.548L357.904 209.855C358.571 210.521 358.904 210.855 359.318 210.855C359.733 210.855 360.066 210.521 360.733 209.855L389.024 181.563C389.691 180.897 390.024 180.563 390.024 180.149C390.024 179.735 389.691 179.402 389.024 178.735L287.708 77.4143C287.041 76.7476 286.708 76.4142 286.294 76.4142C285.879 76.4142 285.546 76.7476 284.879 77.4142L256.563 105.73C255.897 106.397 255.563 106.73 255.563 107.145C255.563 107.559 255.897 107.892 256.563 108.559L289.94 141.935C290.606 142.601 290.94 142.935 290.94 143.349C290.94 143.763 290.606 144.096 289.94 144.763L279.709 154.993L139.052 295.06C138.383 295.727 138.048 296.06 138.048 296.475C138.047 296.89 138.381 297.224 139.049 297.892L148.543 307.385C149.209 308.051 149.543 308.385 149.957 308.385C150.371 308.385 150.705 308.051 151.371 307.384L160.619 298.132C161.286 297.465 161.619 297.132 162.034 297.132C162.448 297.132 162.781 297.465 163.448 298.132L172.959 307.643C173.626 308.31 173.959 308.643 173.959 309.057C173.959 309.471 173.626 309.805 172.959 310.471L151.336 332.099C150.67 332.766 150.337 333.099 150.337 333.513C150.337 333.927 150.67 334.261 151.336 334.927L160.922 344.513C161.589 345.18 161.922 345.513 162.336 345.513C162.751 345.513 163.084 345.18 163.751 344.513L191.779 316.485C192.445 315.818 192.779 315.485 193.193 315.485C193.607 315.485 193.94 315.818 194.607 316.485L204.138 326.016C204.805 326.683 205.138 327.016 205.552 327.016C205.966 327.016 206.3 326.683 206.966 326.016L210.096 322.886C210.763 322.219 211.097 321.886 211.511 321.886C211.925 321.886 212.259 322.22 212.926 322.887C216.177 326.141 219.332 329.293 222.551 332.511C223.217 333.177 223.551 333.511 223.551 333.925C223.551 334.339 223.217 334.673 222.551 335.339L200.988 356.902C200.321 357.569 199.988 357.902 199.988 358.316C199.988 358.731 200.321 359.064 200.988 359.731L210.38 369.122C211.046 369.789 211.38 370.122 211.794 370.122C212.208 370.122 212.542 369.789 213.208 369.122L302.761 279.517C303.427 278.85 303.761 278.516 304.175 278.516C304.589 278.516 304.923 278.849 305.59 279.516L315.175 289.101C315.842 289.768 316.175 290.101 316.175 290.516C316.175 290.93 315.842 291.263 315.175 291.93L225.602 381.517C224.936 382.183 224.602 382.517 224.603 382.931C224.603 383.345 224.936 383.678 225.602 384.345L235.188 393.931C235.855 394.598 236.188 394.931 236.603 394.931C237.017 394.931 237.35 394.598 238.017 393.931L247.369 384.579C248.036 383.912 248.369 383.579 248.783 383.579C249.197 383.579 249.531 383.912 250.197 384.579L259.654 394.035C260.321 394.702 260.654 395.035 261.068 395.035C261.482 395.035 261.816 394.702 262.482 394.035L265.98 390.537C266.647 389.871 266.98 389.537 267.394 389.537C267.809 389.537 268.142 389.871 268.809 390.538C271.926 393.656 274.938 396.67 277.898 399.629C278.565 400.294 278.898 400.627 279.312 400.627C279.726 400.627 280.059 400.294 280.725 399.628L401.169 279.268C401.836 278.601 402.17 278.268 402.17 277.853C402.17 277.439 401.836 277.106 401.169 276.439L330.189 205.458Z" fill="#F75762"/>
</svg>
