<svg xmlns="http://www.w3.org/2000/svg" xmlns:xlink="http://www.w3.org/1999/xlink" viewBox="0 0 596 728.7"><defs><style>.cls-1{fill:url(#Degradado_sin_nombre_6);}.cls-2{fill:url(#Degradado_sin_nombre_6-2);}.cls-3{fill:url(#Degradado_sin_nombre_6-3);}.cls-4{fill:url(#Degradado_sin_nombre_6-4);}.cls-5{fill:url(#Degradado_sin_nombre_6-5);}.cls-6{fill:url(#Degradado_sin_nombre_6-6);}</style><linearGradient id="Degradado_sin_nombre_6" x1="329.21" y1="654.66" x2="329.21" gradientUnits="userSpaceOnUse"><stop offset="0" stop-color="#fd7c48"/><stop offset="1" stop-color="#f34075"/></linearGradient><linearGradient id="Degradado_sin_nombre_6-2" x1="124.49" y1="642.92" x2="124.49" y2="569.12" xlink:href="#Degradado_sin_nombre_6"/><linearGradient id="Degradado_sin_nombre_6-3" x1="49.54" y1="617.99" x2="49.54" y2="544.3" xlink:href="#Degradado_sin_nombre_6"/><linearGradient id="Degradado_sin_nombre_6-4" x1="30.77" y1="530.94" x2="30.77" y2="469.39" xlink:href="#Degradado_sin_nombre_6"/><linearGradient id="Degradado_sin_nombre_6-5" x1="231.36" y1="728.7" x2="231.36" y2="667.45" xlink:href="#Degradado_sin_nombre_6"/><linearGradient id="Degradado_sin_nombre_6-6" x1="299.38" y1="703.45" x2="299.38" y2="654.78" xlink:href="#Degradado_sin_nombre_6"/></defs><g id="Capa_2" data-name="Capa 2"><g id="Capa_1-2" data-name="Capa 1"><path class="cls-1" d="M447.36,257.86,298.5,406.72l-24.93-24.94,25.25-25.25.26.27L446.17,209.71l62.7,62.7,62.67-62.67L361.81,0,299.09,62.72,372,135.63l-23.45,23.45-.59-.59L62.43,444l24.82,24.82,24.32-24.33,24.85,24.85L87.18,518.59l25,25,62.14-62.14,24.89,24.89,12-12c8.53,8.54,16.66,16.66,25.08,25.08l-49.12,49.12,24.61,24.61L397.82,407l25,25L236.74,618.11l25,25,24.53-24.53,24.74,24.74,12.74-12.74c8.31,8.31,16.23,16.24,24,24L596,406.5Z"/><path class="cls-2" d="M87.59,618.35l24.57,24.57,49.23-49.24-24.57-24.56Z"/><path class="cls-3" d="M12.69,593.61,37.07,618l49.31-49.31L62,544.3Z"/><path class="cls-4" d="M61.55,493.84,37.1,469.39,0,506.49l24.45,24.45Z"/><path class="cls-5" d="M200.73,704.3l24.39,24.4L262,691.84l-24.39-24.39Z"/><path class="cls-6" d="M275,679.23l24.23,24.22c8.27-8.28,16.3-16.31,24.45-24.45l-24.23-24.22Z"/></g></g></svg>