<svg width="500" height="500" viewBox="0 0 500 500" fill="none" xmlns="http://www.w3.org/2000/svg">
<path d="M350.706 178.028L250.337 278.397L233.528 261.581L250.553 244.557L250.728 244.738L349.903 145.563L392.179 187.838L434.434 145.583L293.024 4.16669L250.735 46.4556L299.894 95.6148L284.083 111.426L283.685 111.028L91.1671 303.533L107.902 320.268L124.3 303.863L141.055 320.618L107.855 353.825L124.711 370.681L166.609 328.783L183.391 345.565L191.482 337.475C197.233 343.232 202.715 348.707 208.392 354.384L175.273 387.504L191.866 404.097L317.303 278.586L334.16 295.442L208.695 420.926L225.552 437.782L242.091 421.243L258.772 437.924L267.362 429.334C272.965 434.937 278.305 440.284 283.543 445.516L450.926 278.249L350.706 178.028Z" fill="#F75762"/>
<path d="M158.302 404.67L141.446 387.814L107.734 421.189L124.59 438.045L158.302 404.67Z" fill="#F75762"/>
<path d="M107.734 387.813L90.8773 370.957L57.1653 404.332L74.0213 421.189L107.734 387.813Z" fill="#F75762"/>
<path d="M225.727 470.407L209.208 453.89L183.924 478.838L200.78 495.694L225.727 470.407Z" fill="#F75762"/>
<path d="M74.0213 320.726L49.0741 345.673L65.5931 362.192L90.8773 337.245L74.0213 320.726Z" fill="#F75762"/>
<path d="M250.532 445.798L234.492 461.838L250.815 478.161L266.855 462.121L250.532 445.798Z" fill="#F75762"/>
</svg>
